<svg width="15" height="20" viewBox="0 0 15 20" xmlns="http://www.w3.org/2000/svg">
<g id="icon-tenge">
<path id="Vector" d="M14.5312 6.25H0.46875C0.210938 6.25 0 6.46094 0 6.71875V8.90625C0 9.16406 0.210938 9.375 0.46875 9.375H5.9375V18.2812C5.9375 18.5391 6.14844 18.75 6.40625 18.75H8.59375C8.85156 18.75 9.0625 18.5391 9.0625 18.2812V9.375H14.5312C14.7891 9.375 15 9.16406 15 8.90625V6.71875C15 6.46094 14.7891 6.25 14.5312 6.25ZM14.5312 1.25H0.46875C0.210938 1.25 0 1.46094 0 1.71875V3.90625C0 4.16406 0.210938 4.375 0.46875 4.375H14.5312C14.7891 4.375 15 4.16406 15 3.90625V1.71875C15 1.46094 14.7891 1.25 14.5312 1.25Z" fill="black"/>
</g>
</svg>
