<svg width="20" height="20" viewBox="0 0 20 20" xmlns="http://www.w3.org/2000/svg">
<g id="icon-zoom" clip-path="url(#clip0)">
<g id="Group">
<g id="Group_2">
<path id="Vector" d="M19.7709 18.6658L14.1282 13.0232C16.6991 9.89523 16.5242 5.25191 13.6028 2.33058C10.495 -0.777195 5.43836 -0.777195 2.33059 2.33058C-0.777187 5.43835 -0.777187 10.495 2.33059 13.6028C5.25113 16.5234 9.89387 16.7002 13.0232 14.1282L18.6658 19.7709C18.971 20.076 19.4657 20.076 19.7709 19.7709C20.0761 19.4657 20.0761 18.971 19.7709 18.6658ZM12.4978 12.4977C9.99934 14.9962 5.9341 14.9961 3.43566 12.4977C0.937227 9.99929 0.937227 5.93405 3.43566 3.43562C5.93402 0.937297 9.99926 0.937102 12.4978 3.43562C14.9962 5.93405 14.9962 9.99929 12.4978 12.4977Z" fill="black"/>
</g>
</g>
<g id="Group_3">
<g id="Group_4">
<path id="Vector_2" d="M11.7929 7.18562H8.74837V4.14109C8.74837 3.70952 8.39853 3.35968 7.96696 3.35968C7.5354 3.35968 7.18556 3.70952 7.18556 4.14109V7.18562H4.14103C3.70946 7.18562 3.35962 7.53546 3.35962 7.96702C3.35962 8.39859 3.70946 8.74843 4.14103 8.74843H7.18556V11.793C7.18556 12.2245 7.5354 12.5744 7.96696 12.5744C8.39853 12.5744 8.74837 12.2245 8.74837 11.793V8.74843H11.7929C12.2245 8.74843 12.5743 8.39859 12.5743 7.96702C12.5743 7.53546 12.2245 7.18562 11.7929 7.18562Z" fill="black"/>
</g>
</g>
</g>
<defs>
<clipPath id="clip0">
<rect width="20" height="20" fill="white"/>
</clipPath>
</defs>
</svg>
