<svg width="22" height="22" viewBox="0 0 22 22" xmlns="http://www.w3.org/2000/svg">
<g id="icon-close" clip-path="url(#clip0)">
<g id="Group">
<path id="Vector" d="M12.9457 11.0008L21.5969 2.34955C22.1344 1.81252 22.1344 0.941158 21.5969 0.404126C21.0594 -0.133366 20.1889 -0.133366 19.6515 0.404126L11.0002 9.05535L2.34854 0.404126C1.81105 -0.133366 0.94061 -0.133366 0.403119 0.404126C-0.134373 0.941158 -0.134373 1.81252 0.403119 2.34955L9.0548 11.0008L0.403119 19.652C-0.134373 20.189 -0.134373 21.0604 0.403119 21.5974C0.671864 21.8657 1.02408 22.0001 1.37583 22.0001C1.72759 22.0001 2.0798 21.8657 2.34854 21.597L11.0002 12.9457L19.6515 21.597C19.9202 21.8657 20.2724 22.0001 20.6242 22.0001C20.9759 22.0001 21.3281 21.8657 21.5969 21.597C22.1344 21.0599 22.1344 20.1886 21.5969 19.6515L12.9457 11.0008Z" fill="black"/>
</g>
</g>
<defs>
<clipPath id="clip0">
<rect width="22" height="22" fill="white"/>
</clipPath>
</defs>
</svg>
