<svg width="25" height="22" viewBox="0 0 25 22"  xmlns="http://www.w3.org/2000/svg">
<g id="icon-youtube" clip-path="url(#clip0)">
<path id="Vector" d="M23.618 5.33169C23.3481 4.31548 22.5529 3.51514 21.5433 3.24354C19.7132 2.75 12.375 2.75 12.375 2.75C12.375 2.75 5.03675 2.75 3.20667 3.24354C2.19703 3.51519 1.40185 4.31548 1.13196 5.33169C0.641602 7.17363 0.641602 11.0167 0.641602 11.0167C0.641602 11.0167 0.641602 14.8597 1.13196 16.7017C1.40185 17.7179 2.19703 18.4849 3.20667 18.7565C5.03675 19.25 12.375 19.25 12.375 19.25C12.375 19.25 19.7132 19.25 21.5433 18.7565C22.5529 18.4849 23.3481 17.7179 23.618 16.7017C24.1083 14.8597 24.1083 11.0167 24.1083 11.0167C24.1083 11.0167 24.1083 7.17363 23.618 5.33169V5.33169ZM9.97494 14.5059V7.52748L16.1083 11.0168L9.97494 14.5059V14.5059Z" fill="black"/>
</g>
<defs>
<clipPath id="clip0">
<rect width="24.75" height="22" fill="white"/>
</clipPath>
</defs>
</svg>
