<svg width="20" height="20" viewBox="0 0 20 20" xmlns="http://www.w3.org/2000/svg">
<g id="icon-search">
<g id="Group">
<path id="Vector" d="M19.8248 18.98L14.9645 14.1197C16.2683 12.6208 17.0576 10.6652 17.0576 8.52772C17.0576 3.82262 13.2306 0 8.52991 0C3.82481 0 0.00219727 3.82705 0.00219727 8.52772C0.00219727 13.2284 3.82925 17.0554 8.52991 17.0554C10.6674 17.0554 12.623 16.2661 14.1219 14.9623L18.9822 19.8226C19.0975 19.9379 19.2527 20 19.4035 20C19.5543 20 19.7095 19.9423 19.8248 19.8226C20.0554 19.592 20.0554 19.2106 19.8248 18.98ZM1.1951 8.52772C1.1951 4.48337 4.48557 1.19734 8.52548 1.19734C12.5698 1.19734 15.8559 4.4878 15.8559 8.52772C15.8559 12.5676 12.5698 15.8625 8.52548 15.8625C4.48557 15.8625 1.1951 12.5721 1.1951 8.52772Z" fill="black"/>
</g>
</g>
</svg>
