<svg width="8" height="8" viewBox="0 0 8 8" xmlns="http://www.w3.org/2000/svg">
<g id="icon-arrow" clip-path="url(#clip0)">
<g id="Group">
<g id="Group_2">
<path id="Vector" d="M4.00169 4.77059L1.00878 1.77781C0.926568 1.6954 0.81665 1.65007 0.699447 1.65007C0.582178 1.65007 0.472325 1.6954 0.389983 1.77781L0.12787 2.04005C0.0453982 2.12233 -1.79986e-07 2.23231 -1.74863e-07 2.34951C-1.6974e-07 2.46672 0.0453982 2.57657 0.12787 2.65891L3.69118 6.2223C3.77379 6.30496 3.88416 6.35023 4.00149 6.34991C4.11935 6.35023 4.22959 6.30503 4.31226 6.2223L7.87212 2.66223C7.9546 2.57989 7.99999 2.47003 7.99999 2.35277C7.99999 2.23556 7.9546 2.12571 7.87212 2.0433L7.61001 1.78112C7.43941 1.61052 7.16169 1.61052 6.99115 1.78112L4.00169 4.77059Z" fill="black"/>
</g>
</g>
</g>
<defs>
<clipPath id="clip0">
<rect width="8" height="8" fill="white" transform="translate(0 8) rotate(-90)"/>
</clipPath>
</defs>
</svg>
