<svg width="12" height="14" viewBox="0 0 12 14" fill="none" xmlns="http://www.w3.org/2000/svg">
<path d="M11.5714 0.857026H8.35714L8.10536 0.356133C8.05202 0.249047 7.96986 0.158969 7.86812 0.0960322C7.76638 0.0330954 7.6491 -0.000203177 7.52946 -0.000117374H4.46786C4.34849 -0.000576228 4.23142 0.0325982 4.13004 0.095605C4.02866 0.158612 3.94708 0.248903 3.89464 0.356133L3.64286 0.857026H0.428571C0.314907 0.857026 0.205898 0.902178 0.125526 0.982551C0.0451529 1.06292 0 1.17193 0 1.2856L0 2.14274C0 2.2564 0.0451529 2.36541 0.125526 2.44579C0.205898 2.52616 0.314907 2.57131 0.428571 2.57131H11.5714C11.6851 2.57131 11.7941 2.52616 11.8745 2.44579C11.9548 2.36541 12 2.2564 12 2.14274V1.2856C12 1.17193 11.9548 1.06292 11.8745 0.982551C11.7941 0.902178 11.6851 0.857026 11.5714 0.857026ZM1.425 12.5088C1.44544 12.8352 1.58951 13.1416 1.82787 13.3655C2.06624 13.5894 2.38098 13.7141 2.70804 13.7142H9.29196C9.61902 13.7141 9.93376 13.5894 10.1721 13.3655C10.4105 13.1416 10.5546 12.8352 10.575 12.5088L11.1429 3.42845H0.857143L1.425 12.5088Z" fill="black"/>
</svg>
