<svg width="22" height="22" viewBox="0 0 22 22" xmlns="http://www.w3.org/2000/svg">
<g id="icon-home" clip-path="url(#clip0)">
<g id="Group">
<g id="Group_2">
<path id="Vector" d="M21.766 8.94033L11.3377 1.30492C11.1366 1.1577 10.8634 1.1577 10.6624 1.30492L0.233989 8.94033C-0.020729 9.12686 -0.0760727 9.48453 0.110454 9.73925C0.296982 9.99397 0.654696 10.0492 0.909372 9.86279L11 2.47457L21.0907 9.86274C21.1924 9.93729 21.3107 9.97317 21.4279 9.97317C21.6039 9.97317 21.7776 9.89218 21.8895 9.73921C22.0761 9.48453 22.0208 9.12686 21.766 8.94033Z" fill="black"/>
</g>
</g>
<g id="Group_3">
<g id="Group_4">
<path id="Vector_2" d="M19.0027 9.99214C18.6871 9.99214 18.4311 10.2481 18.4311 10.5638V19.6623H13.8583V14.6958C13.8583 13.1197 12.576 11.8375 11 11.8375C9.42402 11.8375 8.14175 13.1198 8.14175 14.6958V19.6624H3.56889V10.5638C3.56889 10.2481 3.31292 9.99218 2.99727 9.99218C2.68162 9.99218 2.42566 10.2481 2.42566 10.5638V20.234C2.42566 20.5497 2.68162 20.8057 2.99727 20.8057H8.71336C9.01397 20.8057 9.25997 20.5734 9.28274 20.2786C9.28412 20.2652 9.28498 20.2506 9.28498 20.234V14.6958C9.28498 13.7501 10.0543 12.9807 11 12.9807C11.9457 12.9807 12.7151 13.7501 12.7151 14.6958V20.234C12.7151 20.2505 12.7159 20.2649 12.7173 20.278C12.7398 20.5731 12.9859 20.8057 13.2867 20.8057H19.0028C19.3185 20.8057 19.5744 20.5497 19.5744 20.234V10.5638C19.5744 10.2481 19.3184 9.99214 19.0027 9.99214Z" fill="black"/>
</g>
</g>
</g>
<defs>
<clipPath id="clip0">
<rect width="22" height="22" fill="white"/>
</clipPath>
</defs>
</svg>
