<svg width="16" height="18" viewBox="0 0 16 18" xmlns="http://www.w3.org/2000/svg">
<g id="icon-instagram" clip-path="url(#clip0)">
<path id="Vector" d="M7.87846 4.95703C5.64252 4.95703 3.83901 6.76054 3.83901 8.99648C3.83901 11.2324 5.64252 13.0359 7.87846 13.0359C10.1144 13.0359 11.9179 11.2324 11.9179 8.99648C11.9179 6.76054 10.1144 4.95703 7.87846 4.95703ZM7.87846 11.6226C6.43354 11.6226 5.25229 10.4449 5.25229 8.99648C5.25229 7.54804 6.43002 6.37031 7.87846 6.37031C9.32689 6.37031 10.5046 7.54804 10.5046 8.99648C10.5046 10.4449 9.32338 11.6226 7.87846 11.6226V11.6226ZM13.0253 4.79179C13.0253 5.31562 12.6035 5.73398 12.0831 5.73398C11.5593 5.73398 11.141 5.31211 11.141 4.79179C11.141 4.27148 11.5628 3.84961 12.0831 3.84961C12.6035 3.84961 13.0253 4.27148 13.0253 4.79179ZM15.7007 5.74804C15.6409 4.48593 15.3527 3.36797 14.4281 2.44687C13.507 1.52578 12.389 1.2375 11.1269 1.17422C9.82611 1.10039 5.92729 1.10039 4.62651 1.17422C3.36792 1.23398 2.24995 1.52226 1.32534 2.44336C0.400732 3.36445 0.115967 4.48242 0.0526855 5.74453C-0.0211426 7.04531 -0.0211426 10.9441 0.0526855 12.2449C0.112451 13.507 0.400732 14.625 1.32534 15.5461C2.24995 16.4672 3.3644 16.7555 4.62651 16.8187C5.92729 16.8926 9.82611 16.8926 11.1269 16.8187C12.389 16.759 13.507 16.4707 14.4281 15.5461C15.3492 14.625 15.6374 13.507 15.7007 12.2449C15.7745 10.9441 15.7745 7.04882 15.7007 5.74804V5.74804ZM14.0202 13.6406C13.746 14.3297 13.2152 14.8605 12.5226 15.1383C11.4855 15.5496 9.02455 15.4547 7.87846 15.4547C6.73236 15.4547 4.26791 15.5461 3.23432 15.1383C2.54526 14.8641 2.0144 14.3332 1.73667 13.6406C1.32534 12.6035 1.42026 10.1426 1.42026 8.99648C1.42026 7.85038 1.32886 5.38593 1.73667 4.35234C2.01089 3.66328 2.54174 3.13242 3.23432 2.85469C4.27143 2.44336 6.73236 2.53828 7.87846 2.53828C9.02455 2.53828 11.489 2.44687 12.5226 2.85469C13.2117 3.1289 13.7425 3.65976 14.0202 4.35234C14.4316 5.38945 14.3367 7.85038 14.3367 8.99648C14.3367 10.1426 14.4316 12.607 14.0202 13.6406Z" fill="black"/>
</g>
<defs>
<clipPath id="clip0">
<rect width="15.75" height="18" fill="white"/>
</clipPath>
</defs>
</svg>
