<svg width="30" height="30" viewBox="0 0 30 30" xmlns="http://www.w3.org/2000/svg">
<g id="icon-user">
<g id="Group">
<g id="Group_2">
<path id="Vector" d="M14.8913 16.1648C14.9223 16.1648 14.9534 16.1648 14.9907 16.1648C15.0031 16.1648 15.0155 16.1648 15.0279 16.1648C15.0466 16.1648 15.0714 16.1648 15.0901 16.1648C16.9103 16.1338 18.3827 15.4939 19.4698 14.27C21.8616 11.5738 21.464 6.95175 21.4206 6.51067C21.2652 3.19942 19.6997 1.61524 18.4075 0.875958C17.4446 0.323048 16.3201 0.0248499 15.0652 0H15.0217C15.0155 0 15.0031 0 14.9969 0H14.9596C14.27 0 12.9157 0.111824 11.6173 0.851108C10.3127 1.59039 8.72227 3.17457 8.56695 6.51067C8.52347 6.95175 8.12587 11.5738 10.5177 14.27C11.5986 15.4939 13.071 16.1338 14.8913 16.1648ZM10.2257 6.66598C10.2257 6.64734 10.2319 6.6287 10.2319 6.61628C10.4369 2.16194 13.5991 1.68358 14.9534 1.68358H14.9782C14.9907 1.68358 15.0093 1.68358 15.0279 1.68358C16.7053 1.72085 19.5568 2.40422 19.7494 6.61628C19.7494 6.63491 19.7494 6.65355 19.7556 6.66598C19.7618 6.70946 20.1967 10.9339 18.2211 13.158C17.4384 14.0402 16.3947 14.475 15.0217 14.4875C15.0093 14.4875 15.0031 14.4875 14.9907 14.4875C14.9782 14.4875 14.972 14.4875 14.9596 14.4875C13.5928 14.475 12.5429 14.0402 11.7664 13.158C9.79702 10.9464 10.2195 6.70325 10.2257 6.66598Z" fill="black"/>
<path id="Vector_2" d="M27.7573 23.831C27.7573 23.8248 27.7573 23.8186 27.7573 23.8124C27.7573 23.7627 27.751 23.713 27.751 23.6571C27.7138 22.427 27.633 19.5506 24.9368 18.6312C24.9182 18.625 24.8933 18.6188 24.8747 18.6126C22.0728 17.8981 19.7432 16.2829 19.7183 16.2642C19.3394 15.9971 18.8175 16.0903 18.5504 16.4692C18.2832 16.8482 18.3764 17.3701 18.7554 17.6372C18.861 17.7117 21.3336 19.4326 24.4274 20.2278C25.8749 20.7434 26.0364 22.2903 26.0799 23.7068C26.0799 23.7627 26.0799 23.8124 26.0861 23.8621C26.0923 24.4212 26.055 25.2847 25.9556 25.7817C24.9492 26.3533 21.0043 28.3289 15.0031 28.3289C9.02667 28.3289 5.0569 26.3471 4.04427 25.7755C3.94487 25.2785 3.90139 24.415 3.91381 23.8559C3.91381 23.8062 3.92002 23.7565 3.92002 23.7006C3.96351 22.2841 4.12503 20.7372 5.57254 20.2216C8.66635 19.4264 11.1389 17.6993 11.2445 17.631C11.6235 17.3638 11.7167 16.842 11.4495 16.463C11.1824 16.0841 10.6605 15.9909 10.2816 16.258C10.2567 16.2767 7.93949 17.8919 5.12524 18.6063C5.10039 18.6126 5.08175 18.6188 5.06312 18.625C2.36691 19.5506 2.28615 22.427 2.24887 23.6509C2.24887 23.7068 2.24887 23.7565 2.24266 23.8062C2.24266 23.8124 2.24266 23.8186 2.24266 23.8248C2.23645 24.1479 2.23023 25.8066 2.55949 26.6391C2.62162 26.8006 2.73344 26.9373 2.88254 27.0305C3.06892 27.1547 7.53568 30 15.0093 30C22.4829 30 26.9496 27.1485 27.136 27.0305C27.2789 26.9373 27.3969 26.8006 27.4591 26.6391C27.7697 25.8128 27.7635 24.1541 27.7573 23.831Z" fill="black"/>
</g>
</g>
</g>
</svg>
