<svg width="34" height="30" viewBox="0 0 34 30" xmlns="http://www.w3.org/2000/svg">
<g id="icon-heart-full" clip-path="url(#clip0)">
<path id="Vector" d="M30.6409 2.72065C28.8955 0.975197 26.5847 0.0212 24.1185 0.0212C21.6521 0.0212 19.3343 0.982263 17.5889 2.72772L16.6772 3.63931L15.7516 2.71359C14.0061 0.96813 11.6811 0 9.21491 0C6.75572 0 4.43788 0.961063 2.69949 2.69945C0.954033 4.44491 -0.00702792 6.76276 3.86948e-05 9.22901C3.86948e-05 11.6953 0.968166 14.0061 2.71362 15.7515L15.9848 29.0226C16.1685 29.2064 16.4158 29.3053 16.656 29.3053C16.8963 29.3053 17.1437 29.2134 17.3273 29.0297L30.6268 15.7797C32.3722 14.0343 33.3333 11.7165 33.3333 9.25021C33.3403 6.78395 32.3863 4.46611 30.6409 2.72065Z" fill="black"/>
</g>
<defs>
<clipPath id="clip0">
<rect width="33.3333" height="30" fill="white"/>
</clipPath>
</defs>
</svg>
