<svg width="30" height="30" viewBox="0 0 30 30" xmlns="http://www.w3.org/2000/svg">
<g id="icon-basket">
<g id="Group">
<path id="Vector" d="M27 25.9325L25.2823 6.58896C25.2454 6.15951 24.8835 5.83436 24.4602 5.83436H20.9264C20.8773 2.60736 18.2393 0 15 0C11.7608 0 9.12273 2.60736 9.07365 5.83436H5.53991C5.11046 5.83436 4.75463 6.15951 4.71782 6.58896L3.00003 25.9325C3.00003 25.9571 2.9939 25.9816 2.9939 26.0061C2.9939 28.2086 5.0123 30 7.49697 30H22.5031C24.9878 30 27.0062 28.2086 27.0062 26.0061C27.0062 25.9816 27.0062 25.9571 27 25.9325ZM15 1.65644C17.3252 1.65644 19.2209 3.52147 19.27 5.83436H10.7301C10.7792 3.52147 12.6749 1.65644 15 1.65644ZM22.5031 28.3436H7.49697C5.93868 28.3436 4.67488 27.3129 4.65034 26.0429L6.29451 7.49693H9.06752V10.0123C9.06752 10.4724 9.43562 10.8405 9.89574 10.8405C10.3559 10.8405 10.724 10.4724 10.724 10.0123V7.49693H19.27V10.0123C19.27 10.4724 19.6381 10.8405 20.0982 10.8405C20.5583 10.8405 20.9264 10.4724 20.9264 10.0123V7.49693H23.6994L25.3497 26.0429C25.3252 27.3129 24.0553 28.3436 22.5031 28.3436Z" fill="black"/>
</g>
</g>
</svg>
