<svg width="16" height="20" viewBox="0 0 16 20" fill="none" xmlns="http://www.w3.org/2000/svg">
<path d="M7.3 3.21162V19.75C7.3 19.8881 7.41193 20 7.55 20H8.45C8.58807 20 8.7 19.8881 8.7 19.75V3.21163C8.7 2.98777 8.97162 2.87675 9.12842 3.03651L13.9264 7.92515C13.9734 7.97305 14.0377 8.00003 14.1049 8.00003H15.3L15.3798 8.00003C15.6048 8.00002 15.7153 7.72596 15.5531 7.56991L8.17337 0.466914C8.07657 0.373743 7.92343 0.373743 7.82663 0.466914L0.446885 7.56992C0.284748 7.72598 0.395216 8.00005 0.620254 8.00004L1.89501 8.00003C1.96212 8.00003 2.02642 7.97305 2.07343 7.92515L6.87158 3.0365C7.02838 2.87674 7.3 2.98776 7.3 3.21162Z" fill="#272727"/>
</svg>
