<svg width="32" height="30" viewBox="0 0 32 30" xmlns="http://www.w3.org/2000/svg">
<g id="icon-like-solid">
<g id="Group">
<g id="Group_2">
<path id="Vector" d="M29.6653 3.64187C28.0869 1.851 25.8974 0.864746 23.5 0.864746C20.1282 0.864746 17.9936 2.8785 16.7966 4.56787C16.486 5.00625 16.2218 5.44581 16 5.85943C15.7782 5.44581 15.5141 5.00625 15.2034 4.56787C14.0064 2.8785 11.8718 0.864746 8.5 0.864746C6.10262 0.864746 3.91306 1.85106 2.33469 3.64193C0.829188 5.35031 0 7.63831 0 10.0844C0 12.7471 1.03956 15.2237 3.27156 17.8782C5.26638 20.2507 8.13619 22.6962 11.4594 25.528C12.6977 26.5832 13.9782 27.6745 15.3416 28.8673L15.3825 28.9032C15.5592 29.0579 15.7796 29.1352 16 29.1352C16.2204 29.1352 16.4408 29.0579 16.6175 28.9032L16.6584 28.8673C18.0218 27.6745 19.3023 26.5833 20.5408 25.5279C23.8638 22.6962 26.7336 20.2507 28.7284 17.8782C30.9604 15.2236 32 12.7471 32 10.0844C32 7.63831 31.1708 5.35031 29.6653 3.64187Z" fill="black"/>
</g>
</g>
</g>
</svg>
