<svg width="156" height="78" viewBox="0 0 156 78" fill="none" xmlns="http://www.w3.org/2000/svg">
<path d="M19.712 57.936L16.064 57.872C15.552 57.872 15.04 57.872 14.528 57.872L2.88 58.448C2.24 58.448 1.92 58.2347 1.92 57.808C1.92 57.68 1.984 57.3813 2.112 56.912C2.53867 55.9307 2.83733 52.816 3.008 47.568C3.22133 42.32 3.328 37.5413 3.328 33.232C3.328 28.88 3.24267 25.36 3.072 22.672C2.816 18.6187 2.38933 16.1867 1.792 15.376C1.32267 14.7787 1.088 14.3947 1.088 14.224C1.088 13.5413 2.24 12.944 4.544 12.432C6.848 11.92 8.49067 11.664 9.472 11.664C10.496 11.664 11.136 11.728 11.392 11.856C11.648 11.9413 11.776 12.1547 11.776 12.496C11.776 12.8373 11.6907 13.9253 11.52 15.76C11.0933 21.1787 10.88 27.4933 10.88 34.704C10.88 41.872 11.0507 47.6107 11.392 51.92C11.392 52.3893 11.7973 52.7947 12.608 53.136C13.4187 53.4773 14.4213 53.648 15.616 53.648C19.7973 53.648 21.888 50.4267 21.888 43.984C21.888 42.192 21.7813 41.0827 21.568 40.656C21.3973 40.2293 21.312 39.952 21.312 39.824C21.312 39.3973 21.6107 39.184 22.208 39.184C22.6773 39.184 23.296 39.4187 24.064 39.888C24.8747 40.3573 25.536 40.9547 26.048 41.68C26.56 42.3627 27.0293 43.472 27.456 45.008C27.8827 46.5013 28.096 48.272 28.096 50.32C28.096 55.3973 27.4773 57.936 26.24 57.936C24.064 57.936 21.888 57.936 19.712 57.936ZM37.0745 23.76L35.5385 23.696C34.3865 23.696 33.6398 23.9733 33.2985 24.528C33.2132 24.656 33.1065 24.72 32.9785 24.72C32.4238 24.72 32.1465 23.7813 32.1465 21.904C32.1465 19.984 32.4238 18.768 32.9785 18.256C33.5758 17.744 34.5785 17.488 35.9865 17.488C37.4372 17.488 38.4185 17.744 38.9305 18.256C39.4425 18.7253 39.6985 19.536 39.6985 20.688C39.6985 21.84 39.5065 22.6507 39.1225 23.12C38.7385 23.5467 38.0558 23.76 37.0745 23.76ZM31.9545 56.08L32.6585 41.168C32.6585 37.6267 32.2532 35.216 31.4425 33.936C31.1865 33.5093 30.8878 33.1893 30.5465 32.976C30.2905 32.8907 30.1625 32.72 30.1625 32.464C30.1625 31.696 31.2505 30.9493 33.4265 30.224C35.6025 29.4987 37.1812 29.136 38.1625 29.136C39.1865 29.136 39.7198 29.392 39.7625 29.904C39.7625 30.7573 39.6345 33.1893 39.3785 37.2C39.1652 41.168 39.0585 45.3493 39.0585 49.744C39.0585 54.1387 39.3145 56.8693 39.8265 57.936C39.9545 58.1493 40.0185 58.3627 40.0185 58.576C40.0185 59.1307 39.2078 59.408 37.5865 59.408C35.9652 59.408 34.3012 58.9813 32.5945 58.128C32.1678 57.9147 31.9545 57.232 31.9545 56.08ZM56.848 35.92L55.376 36.304C54.608 36.304 54.224 35.6 54.224 34.192C54.224 32.7413 54.736 31.5893 55.76 30.736C56.8267 29.84 58.1707 29.392 59.792 29.392C60.688 29.392 61.648 29.6693 62.672 30.224C63.696 30.736 64.5493 31.3973 65.232 32.208C65.9147 32.976 66.512 34.2133 67.024 35.92C67.5787 37.584 67.856 39.5467 67.856 41.808C67.856 47.0133 66.448 51.2373 63.632 54.48C60.8587 57.7227 56.8267 59.344 51.536 59.344C50 59.344 48.4853 59.1947 46.992 58.896L46.352 58.768C45.7973 58.5973 45.4773 58.2987 45.392 57.872C45.264 56.976 45.2 54.864 45.2 51.536L45.584 30.8C45.584 27.6 45.4987 25.1467 45.328 23.44L45.2 22.544C45.1147 21.3493 44.8587 20.3253 44.432 19.472C44.048 18.6187 43.664 18.064 43.28 17.808L42.768 17.488C42.4693 17.3173 42.32 17.1253 42.32 16.912C42.32 16.272 43.3867 15.5253 45.52 14.672C47.6533 13.776 49.2107 13.328 50.192 13.328C51.1733 13.328 51.6853 13.584 51.728 14.096C52.0267 16.6987 52.176 20.4107 52.176 25.232L51.856 40.592C51.856 47.2907 52.048 51.92 52.432 54.48C52.4747 55.0773 53.136 55.376 54.416 55.376C55.7387 55.376 56.8693 55.0133 57.808 54.288C58.7467 53.5627 59.4507 52.6027 59.92 51.408C60.7733 49.232 61.2 46.8213 61.2 44.176C61.2 42.9387 61.0293 41.5947 60.688 40.144C60.0907 37.328 58.8107 35.92 56.848 35.92ZM76.8125 41.744L76.8765 43.344C76.8765 43.6 77.0472 43.728 77.3885 43.728C78.7538 43.6 79.9485 43.2587 80.9725 42.704C81.9965 42.1067 82.7645 41.4453 83.2765 40.72C84.3005 39.1413 84.8552 37.776 84.9405 36.624L85.0045 35.856C85.0045 33.552 84.0872 32.4 82.2525 32.4C80.8872 32.4 79.7778 32.9973 78.9245 34.192C77.5165 36.0693 76.8125 38.5867 76.8125 41.744ZM90.7645 50.256C90.7645 51.8773 90.4232 53.3067 89.7405 54.544C89.1005 55.7387 88.3538 56.6347 87.5005 57.232C86.6898 57.7867 85.7298 58.2347 84.6205 58.576C83.2125 59.0027 81.8685 59.216 80.5885 59.216C77.0045 59.216 74.3592 57.872 72.6525 55.184C70.9458 52.496 70.0925 49.0827 70.0925 44.944C70.0925 40.7627 71.1378 37.0507 73.2285 33.808C75.3618 30.5653 78.5405 28.944 82.7645 28.944C86.6045 28.944 89.2072 30.288 90.5725 32.976C91.1272 34 91.4045 34.9813 91.4045 35.92C91.4045 36.816 91.3618 37.5413 91.2765 38.096C91.1912 38.608 90.8925 39.3973 90.3805 40.464C89.8685 41.5307 89.1858 42.4907 88.3325 43.344C87.4792 44.1973 86.1352 45.008 84.3005 45.776C82.4658 46.544 80.3112 47.056 77.8365 47.312C77.4952 47.312 77.3245 47.4613 77.3245 47.76C77.3245 48.144 77.4525 48.72 77.7085 49.488C78.0072 50.2133 78.3272 50.832 78.6685 51.344C79.6072 52.5387 80.9938 53.136 82.8285 53.136C84.6632 53.136 86.2205 52.5387 87.5005 51.344C88.1832 50.704 88.7378 49.9147 89.1645 48.976C89.3352 48.6347 89.5485 48.464 89.8045 48.464C90.1032 48.464 90.3378 48.6987 90.5085 49.168C90.6792 49.6373 90.7645 50 90.7645 50.256ZM113.19 40.848L113.446 43.088C113.446 43.8987 112.678 44.304 111.142 44.304C108.027 44.304 106.47 43.1307 106.47 40.784C106.47 40.2293 106.619 39.4613 106.918 38.48C107.217 37.4987 107.366 36.6453 107.366 35.92C107.366 35.1947 107.153 34.576 106.726 34.064C106.299 33.5093 105.681 33.232 104.87 33.232C104.059 33.232 103.355 33.5307 102.758 34.128C102.203 34.6827 101.862 35.2587 101.734 35.856L101.478 36.752C101.222 38.0747 101.094 40.2933 101.094 43.408C101.094 46.48 101.137 48.912 101.222 50.704C101.307 52.4533 101.393 53.6693 101.478 54.352C101.563 54.992 101.606 55.376 101.606 55.504C101.606 56.5707 100.945 57.424 99.622 58.064C98.2993 58.7467 96.9767 59.088 95.654 59.088C94.3313 59.088 93.67 58.8107 93.67 58.256L93.99 56.272C94.5873 52.56 94.886 47.7173 94.886 41.744C94.886 35.7707 94.6727 31.7173 94.246 29.584C94.246 29.072 94.694 28.816 95.59 28.816C97.894 28.816 99.43 29.6053 100.198 31.184C100.241 31.3547 100.305 31.44 100.39 31.44C100.518 31.44 100.817 31.248 101.286 30.864C102.694 29.712 104.358 29.136 106.278 29.136C107.473 29.136 108.667 29.3707 109.862 29.84C112.294 30.8213 113.51 32.8693 113.51 35.984L113.19 40.848ZM115.46 33.04L115.652 30.48C115.695 30.096 115.993 29.904 116.548 29.904H118.788L118.532 24.784V24.528C118.532 23.5467 119.279 22.608 120.772 21.712C122.265 20.816 123.631 20.368 124.868 20.368C125.252 20.368 125.444 20.5387 125.444 20.88V20.944C125.273 22.096 125.103 25.0613 124.932 29.84C126.809 29.84 128.004 29.7973 128.516 29.712C129.028 29.6267 129.305 29.584 129.348 29.584C129.647 29.584 129.796 29.84 129.796 30.352C129.796 30.864 129.561 31.5253 129.092 32.336C128.623 33.104 128.111 33.5093 127.556 33.552H124.868C124.825 35.0027 124.804 37.456 124.804 40.912C124.804 44.3253 124.825 47.1413 124.868 49.36C124.953 51.5787 125.039 53.264 125.124 54.416C125.209 55.5253 125.295 56.4213 125.38 57.104C125.508 57.7867 125.593 58.2773 125.636 58.576C125.721 58.8747 125.764 59.0667 125.764 59.152C125.764 59.5787 125.487 59.8133 124.932 59.856C123.268 59.856 121.604 59.6213 119.94 59.152C118.319 58.6827 117.508 57.872 117.508 56.72C118.404 49.552 118.852 41.8507 118.852 33.616C117.7 33.616 116.825 33.6587 116.228 33.744H116.164C115.78 33.744 115.545 33.5093 115.46 33.04ZM142.686 75.728C142.686 76.24 142.43 76.496 141.918 76.496H141.854C140.446 76.496 138.846 76.0053 137.054 75.024C135.304 74.0427 134.43 72.912 134.43 71.632C134.43 70.352 135.24 68.112 136.862 64.912C138.483 61.7547 139.294 59.6427 139.294 58.576C139.294 57.424 138.739 55.3547 137.63 52.368C136.222 48.4853 135.091 45.328 134.238 42.896C133.427 40.464 132.531 38.3307 131.549 36.496C130.611 34.6187 129.928 33.5093 129.502 33.168L128.861 32.72C128.392 32.464 128.157 32.1867 128.157 31.888C128.157 31.2907 129.075 30.6933 130.91 30.096C132.787 29.456 134.43 29.136 135.838 29.136C136.478 29.136 137.011 29.648 137.438 30.672C138.206 32.6773 139.038 35.4507 139.934 38.992C142.11 46.2453 143.475 49.872 144.03 49.872C144.414 49.872 145.182 48.3787 146.333 45.392C147.528 42.4053 148.126 39.9947 148.126 38.16C148.126 34.96 147.187 33.0827 145.31 32.528C144.883 32.4427 144.67 32.2293 144.67 31.888C144.67 31.12 145.672 30.3947 147.678 29.712C149.683 28.9867 151.496 28.624 153.118 28.624C154.526 28.624 155.23 29.5413 155.23 31.376C155.23 32.784 154.931 34.4267 154.334 36.304C153.736 38.1813 153.182 39.6747 152.67 40.784C152.158 41.8507 150.878 44.368 148.83 48.336C146.824 52.2613 145.16 55.7173 143.838 58.704C142.387 62.288 141.662 65.936 141.662 69.648C141.662 71.6107 141.832 73.0827 142.174 74.064C142.515 75.0453 142.686 75.6 142.686 75.728Z" fill="#C9161C"/>
<path d="M2.96 74H3.71V69.83H4.69V69.17H3.71V68.8C3.71 68.19 3.98 67.85 4.47 67.85C4.64 67.85 4.78 67.89 4.9 67.96L5.09 67.4C4.9 67.28 4.64 67.23 4.36 67.23C3.52 67.23 2.96 67.8 2.96 68.8V69.17H2.16V69.83H2.96V74ZM5.58203 74H6.33203V70.58C6.55203 70.19 7.18203 69.81 7.64203 69.81C7.76203 69.81 7.85203 69.82 7.94203 69.84V69.07C7.28203 69.07 6.72203 69.44 6.33203 69.95V69.17H5.58203V74ZM8.60281 71.58C8.60281 73.09 9.63281 74.12 11.0628 74.12C11.8528 74.12 12.5028 73.86 12.9828 73.38L12.6228 72.89C12.2428 73.28 11.6828 73.5 11.1328 73.5C10.0928 73.5 9.45281 72.74 9.39281 71.83H13.3028V71.64C13.3028 70.19 12.4428 69.05 10.9828 69.05C9.60281 69.05 8.60281 70.18 8.60281 71.58ZM10.9728 69.67C12.0728 69.67 12.5528 70.56 12.5628 71.28H9.39281C9.43281 70.54 9.94281 69.67 10.9728 69.67ZM14.2376 71.58C14.2376 73.09 15.2676 74.12 16.6976 74.12C17.4876 74.12 18.1376 73.86 18.6176 73.38L18.2576 72.89C17.8776 73.28 17.3176 73.5 16.7676 73.5C15.7276 73.5 15.0876 72.74 15.0276 71.83H18.9376V71.64C18.9376 70.19 18.0776 69.05 16.6176 69.05C15.2376 69.05 14.2376 70.18 14.2376 71.58ZM16.6076 69.67C17.7076 69.67 18.1876 70.56 18.1976 71.28H15.0276C15.0676 70.54 15.5776 69.67 16.6076 69.67ZM23.9505 74.12C24.3905 74.12 24.6605 73.99 24.8505 73.81L24.6305 73.25C24.5305 73.36 24.3305 73.45 24.1205 73.45C23.7905 73.45 23.6305 73.19 23.6305 72.83V69.83H24.6105V69.17H23.6305V67.85H22.8805V69.17H22.0805V69.83H22.8805V72.99C22.8805 73.71 23.2405 74.12 23.9505 74.12ZM25.3899 71.58C25.3899 73.09 26.4199 74.12 27.8499 74.12C28.6399 74.12 29.2899 73.86 29.7699 73.38L29.4099 72.89C29.0299 73.28 28.4699 73.5 27.9199 73.5C26.8799 73.5 26.2399 72.74 26.1799 71.83H30.0899V71.64C30.0899 70.19 29.2299 69.05 27.7699 69.05C26.3899 69.05 25.3899 70.18 25.3899 71.58ZM27.7599 69.67C28.8599 69.67 29.3399 70.56 29.3499 71.28H26.1799C26.2199 70.54 26.7299 69.67 27.7599 69.67ZM37.1347 74H37.8847V70.51C37.8847 69.54 37.4147 69.05 36.5347 69.05C35.8347 69.05 35.1847 69.51 34.9147 69.95C34.7747 69.45 34.3547 69.05 33.6147 69.05C32.9047 69.05 32.2547 69.56 32.0547 69.87V69.17H31.3047V74H32.0547V70.47C32.3147 70.08 32.8347 69.72 33.3247 69.72C33.9547 69.72 34.2147 70.11 34.2147 70.72V74H34.9647V70.46C35.2147 70.08 35.7447 69.72 36.2447 69.72C36.8647 69.72 37.1347 70.11 37.1347 70.72V74ZM40.1309 75.84V73.27C40.5209 73.81 41.1009 74.12 41.7609 74.12C43.0309 74.12 43.9109 73.14 43.9109 71.58C43.9109 70.01 43.0309 69.05 41.7609 69.05C41.0809 69.05 40.4809 69.4 40.1309 69.89V69.17H39.3809V75.84H40.1309ZM43.1209 71.58C43.1209 72.65 42.5409 73.45 41.5709 73.45C40.9809 73.45 40.3909 73.09 40.1309 72.67V70.49C40.3909 70.07 40.9809 69.72 41.5709 69.72C42.5409 69.72 43.1209 70.51 43.1209 71.58ZM45.123 74H45.873V67.33H45.123V74ZM50.3891 74H51.1391V70.68C51.1391 69.51 50.2891 69.05 49.2691 69.05C48.4791 69.05 47.8591 69.31 47.3391 69.85L47.6891 70.37C48.1191 69.91 48.5891 69.7 49.1691 69.7C49.8691 69.7 50.3891 70.07 50.3891 70.72V71.59C49.9991 71.14 49.4491 70.93 48.7891 70.93C47.9691 70.93 47.0991 71.44 47.0991 72.52C47.0991 73.57 47.9691 74.12 48.7891 74.12C49.4391 74.12 49.9891 73.89 50.3891 73.45V74ZM50.3891 72.98C50.0991 73.38 49.5891 73.58 49.0591 73.58C48.3591 73.58 47.8691 73.14 47.8691 72.53C47.8691 71.91 48.3591 71.47 49.0591 71.47C49.5891 71.47 50.0991 71.67 50.3891 72.07V72.98ZM53.8626 74.12C54.3026 74.12 54.5726 73.99 54.7626 73.81L54.5426 73.25C54.4426 73.36 54.2426 73.45 54.0326 73.45C53.7026 73.45 53.5426 73.19 53.5426 72.83V69.83H54.5226V69.17H53.5426V67.85H52.7926V69.17H51.9926V69.83H52.7926V72.99C52.7926 73.71 53.1526 74.12 53.8626 74.12ZM55.302 71.58C55.302 73.09 56.332 74.12 57.762 74.12C58.552 74.12 59.202 73.86 59.682 73.38L59.322 72.89C58.942 73.28 58.382 73.5 57.832 73.5C56.792 73.5 56.152 72.74 56.092 71.83H60.002V71.64C60.002 70.19 59.142 69.05 57.682 69.05C56.302 69.05 55.302 70.18 55.302 71.58ZM57.672 69.67C58.772 69.67 59.252 70.56 59.262 71.28H56.092C56.132 70.54 56.642 69.67 57.672 69.67ZM64.0049 74H64.7549V69.83H65.7349V69.17H64.7549V68.8C64.7549 68.19 65.0249 67.85 65.5149 67.85C65.6849 67.85 65.8249 67.89 65.9449 67.96L66.1349 67.4C65.9449 67.28 65.6849 67.23 65.4049 67.23C64.5649 67.23 64.0049 67.8 64.0049 68.8V69.17H63.2049V69.83H64.0049V74ZM68.737 74.12C70.207 74.12 71.127 72.98 71.127 71.58C71.127 70.18 70.207 69.05 68.737 69.05C67.267 69.05 66.347 70.18 66.347 71.58C66.347 72.98 67.267 74.12 68.737 74.12ZM68.737 73.45C67.707 73.45 67.127 72.57 67.127 71.58C67.127 70.6 67.707 69.72 68.737 69.72C69.767 69.72 70.337 70.6 70.337 71.58C70.337 72.57 69.767 73.45 68.737 73.45ZM72.3496 74H73.0996V70.58C73.3196 70.19 73.9496 69.81 74.4096 69.81C74.5296 69.81 74.6196 69.82 74.7096 69.84V69.07C74.0496 69.07 73.4896 69.44 73.0996 69.95V69.17H72.3496V74ZM77.8585 73.06C78.4085 73.68 79.2585 74.12 80.4185 74.12C82.2185 74.12 82.8785 73.13 82.8785 72.16C82.8785 70.76 81.6385 70.42 80.5485 70.13C79.6985 69.9 78.9285 69.7 78.9285 69.03C78.9285 68.4 79.4985 67.97 80.2985 67.97C81.0285 67.97 81.7285 68.22 82.2285 68.77L82.7285 68.16C82.1685 67.57 81.3785 67.23 80.3585 67.23C79.0485 67.23 78.0685 67.98 78.0685 69.08C78.0685 70.39 79.2585 70.69 80.3285 70.97C81.2085 71.21 82.0185 71.43 82.0185 72.23C82.0185 72.74 81.6385 73.38 80.4485 73.38C79.5085 73.38 78.7885 72.92 78.3485 72.43L77.8585 73.06ZM87.3579 74H88.1079V70.59C88.1079 69.54 87.5779 69.05 86.5679 69.05C85.8379 69.05 85.1779 69.47 84.8379 69.87V67.33H84.0879V74H84.8379V70.47C85.1279 70.08 85.6879 69.72 86.2679 69.72C86.9179 69.72 87.3579 69.97 87.3579 70.82V74ZM91.7155 74.12C93.1855 74.12 94.1055 72.98 94.1055 71.58C94.1055 70.18 93.1855 69.05 91.7155 69.05C90.2455 69.05 89.3255 70.18 89.3255 71.58C89.3255 72.98 90.2455 74.12 91.7155 74.12ZM91.7155 73.45C90.6855 73.45 90.1055 72.57 90.1055 71.58C90.1055 70.6 90.6855 69.72 91.7155 69.72C92.7455 69.72 93.3155 70.6 93.3155 71.58C93.3155 72.57 92.7455 73.45 91.7155 73.45ZM96.0781 75.84V73.27C96.4681 73.81 97.0481 74.12 97.7081 74.12C98.9781 74.12 99.8581 73.14 99.8581 71.58C99.8581 70.01 98.9781 69.05 97.7081 69.05C97.0281 69.05 96.4281 69.4 96.0781 69.89V69.17H95.3281V75.84H96.0781ZM99.0681 71.58C99.0681 72.65 98.4881 73.45 97.5181 73.45C96.9281 73.45 96.3381 73.09 96.0781 72.67V70.49C96.3381 70.07 96.9281 69.72 97.5181 69.72C98.4881 69.72 99.0681 70.51 99.0681 71.58ZM105.25 74H106L107.54 69.17H106.76L105.58 73.02L104.31 69.17H103.67L102.4 73.02L101.22 69.17H100.44L101.98 74H102.73L103.99 70.12L105.25 74ZM111.434 74H112.184V70.68C112.184 69.51 111.334 69.05 110.314 69.05C109.524 69.05 108.904 69.31 108.384 69.85L108.734 70.37C109.164 69.91 109.634 69.7 110.214 69.7C110.914 69.7 111.434 70.07 111.434 70.72V71.59C111.044 71.14 110.494 70.93 109.834 70.93C109.014 70.93 108.144 71.44 108.144 72.52C108.144 73.57 109.014 74.12 109.834 74.12C110.484 74.12 111.034 73.89 111.434 73.45V74ZM111.434 72.98C111.144 73.38 110.634 73.58 110.104 73.58C109.404 73.58 108.914 73.14 108.914 72.53C108.914 71.91 109.404 71.47 110.104 71.47C110.634 71.47 111.144 71.67 111.434 72.07V72.98ZM113.688 74H114.438V70.58C114.658 70.19 115.288 69.81 115.748 69.81C115.868 69.81 115.958 69.82 116.048 69.84V69.07C115.388 69.07 114.828 69.44 114.438 69.95V69.17H113.688V74ZM116.708 71.58C116.708 73.09 117.738 74.12 119.168 74.12C119.958 74.12 120.608 73.86 121.088 73.38L120.728 72.89C120.348 73.28 119.788 73.5 119.238 73.5C118.198 73.5 117.558 72.74 117.498 71.83H121.408V71.64C121.408 70.19 120.548 69.05 119.088 69.05C117.708 69.05 116.708 70.18 116.708 71.58ZM119.078 69.67C120.178 69.67 120.658 70.56 120.668 71.28H117.498C117.538 70.54 118.048 69.67 119.078 69.67ZM124.961 70.68C124.961 72.49 125.671 74.12 127.531 74.12C128.991 74.12 129.871 73.1 129.871 71.94C129.871 70.52 128.891 69.81 127.691 69.81C126.831 69.81 126.091 70.39 125.801 70.85C125.791 70.76 125.791 70.68 125.791 70.59C125.791 69.28 126.381 67.97 127.671 67.97C128.371 67.97 128.761 68.25 129.101 68.65L129.521 68.03C129.111 67.56 128.531 67.23 127.671 67.23C125.801 67.23 124.961 68.87 124.961 70.68ZM129.031 71.97C129.031 72.61 128.531 73.38 127.501 73.38C126.341 73.38 125.901 72.36 125.821 71.53C126.191 70.94 126.831 70.53 127.491 70.53C128.351 70.53 129.031 70.99 129.031 71.97Z" fill="#272727"/>
</svg>
