<svg width="512" height="512" viewBox="0 0 512 512" fill="none" xmlns="http://www.w3.org/2000/svg">
<path d="M255.595 264.982C322.167 264.982 376.586 210.563 376.586 143.991C376.586 77.4192 322.167 23 255.595 23C189.023 23 134.605 77.4192 134.605 143.991C134.605 210.563 189.024 264.982 255.595 264.982Z" fill="black"/>
<path d="M463.235 361.669C460.065 353.744 455.838 346.347 451.083 339.479C426.779 303.551 389.268 279.775 347 273.963C341.717 273.436 335.905 274.491 331.678 277.662C309.487 294.04 283.071 302.494 255.596 302.494C228.121 302.494 201.705 294.04 179.514 277.662C175.287 274.491 169.475 272.907 164.192 273.963C121.924 279.775 83.8839 303.551 60.1086 339.479C55.3535 346.347 51.1263 354.273 47.957 361.669C46.3723 364.84 46.9002 368.538 48.4848 371.708C52.712 379.105 57.995 386.502 62.75 392.842C70.1466 402.881 78.072 411.862 87.0542 420.316C94.4508 427.712 102.904 434.581 111.358 441.449C153.097 472.622 203.29 489 255.068 489C306.846 489 357.039 472.621 398.778 441.449C407.231 435.11 415.684 427.712 423.082 420.316C431.535 411.862 439.989 402.88 447.386 392.842C452.669 385.973 457.425 379.105 461.651 371.708C464.292 368.538 464.82 364.839 463.235 361.669Z" fill="black"/>
</svg>
