<svg width="512" height="512" viewBox="0 0 512 512" fill="none" xmlns="http://www.w3.org/2000/svg">
<path d="M256 489C253.41 489 250.821 488.296 248.501 486.886C245.981 485.356 186.11 448.773 125.38 393.653C89.3863 360.984 60.6544 328.582 39.9844 297.348C13.2365 256.931 -0.214415 218.054 0.00258408 181.797C0.256583 139.608 14.6155 99.9319 40.4374 70.0764C66.6954 39.7178 101.737 23 139.11 23C187.007 23 230.798 51.2349 256.001 95.9624C281.204 51.236 324.994 23 372.891 23C408.199 23 441.886 38.0846 467.75 65.4755C496.134 95.5341 512.261 138.005 511.997 181.997C511.779 218.191 498.076 257.009 471.269 297.37C450.535 328.588 421.843 360.976 385.99 393.635C325.482 448.75 266.042 485.331 263.541 486.862C261.21 488.286 258.604 489 256 489V489Z" fill="black"/>
</svg>
