<svg width="512" height="512" viewBox="0 0 512 512" fill="none" xmlns="http://www.w3.org/2000/svg">
<path d="M454.064 178.378C450.866 174.816 446.288 172.786 441.473 172.786H357.312V122.857C357.312 67.7859 312.016 23 256.318 23C200.62 23 155.325 67.7859 155.325 122.857V172.786H71.1632C66.3492 172.786 61.7708 174.816 58.5727 178.378C55.3745 181.939 53.8765 186.682 54.4319 191.392L83.0973 429.768C86.9014 463.536 115.668 489 150.022 489H362.614C396.986 489 425.735 463.536 429.523 429.901L458.205 191.392C458.76 186.666 457.262 181.939 454.064 178.378V178.378ZM188.989 122.857C188.989 86.143 219.186 56.2857 256.318 56.2857C293.45 56.2857 323.648 86.143 323.648 122.857V172.786H188.989V122.857ZM172.157 239.357C162.866 239.357 155.325 231.901 155.325 222.714C155.325 213.527 162.866 206.071 172.157 206.071C181.448 206.071 188.989 213.527 188.989 222.714C188.989 231.901 181.448 239.357 172.157 239.357ZM340.48 239.357C331.188 239.357 323.648 231.901 323.648 222.714C323.648 213.527 331.188 206.071 340.48 206.071C349.771 206.071 357.312 213.527 357.312 222.714C357.312 231.901 349.771 239.357 340.48 239.357Z" fill="black"/>
</svg>
