<svg width="327" height="90" viewBox="0 0 327 90" fill="none" xmlns="http://www.w3.org/2000/svg">
<rect width="90" height="90" rx="10" fill="#D51523"/>
<path d="M64.3359 20.0938C64.4401 20.3021 64.4922 21.0312 64.4922 22.2812C64.5443 23.5312 64.5443 25.0417 64.4922 26.8125C64.4922 28.5833 64.4401 30.4844 64.3359 32.5156C64.2318 34.4948 64.1016 36.3698 63.9453 38.1406C63.8411 39.1302 63.6589 40.6146 63.3984 42.5938C63.1901 44.5729 62.9297 46.7604 62.6172 49.1562C62.3047 51.5521 61.9661 54.026 61.6016 56.5781C61.2891 59.0781 60.9766 61.3958 60.6641 63.5312C60.3516 65.6146 60.0651 67.3594 59.8047 68.7656C59.5964 70.1719 59.4401 70.9271 59.3359 71.0312C59.1276 71.1875 58.7891 71.5781 58.3203 72.2031C57.8516 72.776 57.3307 73.375 56.7578 74C56.237 74.5729 55.7422 75.0417 55.2734 75.4062C54.8047 75.7708 54.4922 75.8229 54.3359 75.5625C54.2318 75.0417 54.1797 73.4271 54.1797 70.7188C54.1797 69.5729 54.1797 68.1406 54.1797 66.4219C54.2318 64.651 54.2839 62.5156 54.3359 60.0156C54.4401 57.5156 54.5703 54.599 54.7266 51.2656C54.8828 47.9323 55.0651 44.0781 55.2734 39.7031C54.2318 43.2448 53.2943 46.3698 52.4609 49.0781C51.6797 51.7865 50.9766 54.1562 50.3516 56.1875C49.7786 58.1667 49.2839 59.8594 48.8672 61.2656C48.4505 62.6198 48.0859 63.7396 47.7734 64.625C47.0964 66.7083 46.6536 67.9323 46.4453 68.2969C46.237 68.349 45.8984 68.1927 45.4297 67.8281C45.013 67.4635 44.5182 66.9427 43.9453 66.2656C43.4245 65.5365 42.8776 64.6771 42.3047 63.6875C41.7839 62.6979 41.3411 61.6042 40.9766 60.4062C40.612 59.3125 40.1432 57.8542 39.5703 56.0312C39.0495 54.4688 38.3724 52.4375 37.5391 49.9375C36.7057 47.3854 35.6901 44.2083 34.4922 40.4062C34.8047 44.6771 35.0651 48.4271 35.2734 51.6562C35.4818 54.8854 35.638 57.6979 35.7422 60.0938C35.8984 62.4896 36.0026 64.5208 36.0547 66.1875C36.1589 67.8021 36.2109 69.1562 36.2109 70.25C36.263 72.75 36.1849 74.1823 35.9766 74.5469C35.4557 74.5469 34.8828 74.3125 34.2578 73.8438C33.6849 73.3229 33.112 72.724 32.5391 72.0469C32.0182 71.3177 31.5495 70.6146 31.1328 69.9375C30.7682 69.2604 30.5599 68.7656 30.5078 68.4531C30.4557 68.2448 30.2995 67.2812 30.0391 65.5625C29.7786 63.8438 29.4661 61.6562 29.1016 59C28.7891 56.2917 28.4245 53.2708 28.0078 49.9375C27.6432 46.5521 27.2786 43.1146 26.9141 39.625C26.6016 36.1354 26.3411 32.75 26.1328 29.4688C25.9245 26.1354 25.8203 23.1667 25.8203 20.5625C25.8203 20.1458 26.3411 19.599 27.3828 18.9219C28.4245 18.1927 29.5964 17.5156 30.8984 16.8906C32.2526 16.2135 33.5026 15.6406 34.6484 15.1719C35.7943 14.651 36.4974 14.3906 36.7578 14.3906C36.9661 14.3906 37.1745 14.9896 37.3828 16.1875C37.6432 17.3854 37.9297 18.8958 38.2422 20.7188C38.5547 22.5417 38.8932 24.5729 39.2578 26.8125C39.6224 29.0521 40.0391 31.1875 40.5078 33.2188C40.8724 35.3021 41.3151 37.4635 41.8359 39.7031C42.2526 41.6302 42.7214 43.7656 43.2422 46.1094C43.8151 48.401 44.4401 50.6406 45.1172 52.8281C45.8464 49.651 46.4974 46.7865 47.0703 44.2344C47.6953 41.6302 48.2422 39.4167 48.7109 37.5938C49.2839 35.4583 49.7786 33.5573 50.1953 31.8906C51.1328 27.8281 52.0443 24.625 52.9297 22.2812C53.8672 19.9375 54.4661 18.5573 54.7266 18.1406C54.8828 17.9323 55.4297 17.8802 56.3672 17.9844C57.3568 18.0885 58.4245 18.2708 59.5703 18.5312C60.7161 18.7396 61.7578 19 62.6953 19.3125C63.6849 19.625 64.2318 19.8854 64.3359 20.0938Z" fill="white"/>
<path d="M99.352 55V9.816H106.52L124.312 37.528H120.664L138.392 9.816H145.624V55H135.576V26.776L137.368 27.224L125.784 45.272H119.128L107.608 27.224L109.336 26.776V55H99.352ZM154.29 55V9.816H164.338V55H154.29ZM161.97 55V46.296H186.738V55H161.97ZM161.97 36.12V27.736H184.498V36.12H161.97ZM161.97 18.456V9.816H186.418V18.456H161.97ZM203.362 55V10.456H213.41V55H203.362ZM189.218 18.584V9.816H227.554V18.584H189.218ZM240.845 36.376V28.952H250.381C252.386 28.952 253.922 28.44 254.989 27.416C256.098 26.392 256.653 25.0053 256.653 23.256C256.653 21.6347 256.119 20.2907 255.053 19.224C253.986 18.1573 252.45 17.624 250.445 17.624H240.845V9.816H251.597C254.583 9.816 257.207 10.392 259.469 11.544C261.73 12.6533 263.501 14.2107 264.781 16.216C266.061 18.2213 266.701 20.5253 266.701 23.128C266.701 25.7733 266.061 28.0987 264.781 30.104C263.501 32.0667 261.709 33.6027 259.405 34.712C257.101 35.8213 254.391 36.376 251.277 36.376H240.845ZM233.165 55V9.816H243.213V55H233.165ZM257.741 55L243.661 35.544L252.877 33.048L269.645 55H257.741ZM295.358 55.768C291.944 55.768 288.787 55.1707 285.885 53.976C283.027 52.7813 280.51 51.1173 278.334 48.984C276.158 46.8507 274.472 44.376 273.278 41.56C272.083 38.7013 271.486 35.6293 271.486 32.344C271.486 29.016 272.083 25.944 273.278 23.128C274.472 20.312 276.136 17.8587 278.27 15.768C280.403 13.6347 282.899 11.992 285.758 10.84C288.659 9.64533 291.816 9.048 295.23 9.048C298.6 9.048 301.715 9.64533 304.574 10.84C307.475 11.992 309.992 13.6347 312.126 15.768C314.302 17.8587 315.987 20.3333 317.182 23.192C318.376 26.008 318.974 29.08 318.974 32.408C318.974 35.6933 318.376 38.7653 317.182 41.624C315.987 44.44 314.323 46.9147 312.19 49.048C310.056 51.1387 307.539 52.7813 304.638 53.976C301.779 55.1707 298.686 55.768 295.358 55.768ZM295.23 46.616C297.918 46.616 300.264 46.0187 302.27 44.824C304.318 43.6293 305.896 41.9653 307.006 39.832C308.115 37.656 308.67 35.16 308.67 32.344C308.67 30.2107 308.35 28.2907 307.71 26.584C307.07 24.8347 306.152 23.3413 304.958 22.104C303.763 20.824 302.334 19.864 300.67 19.224C299.048 18.5413 297.235 18.2 295.23 18.2C292.542 18.2 290.174 18.7973 288.126 19.992C286.12 21.144 284.563 22.7867 283.454 24.92C282.344 27.0107 281.79 29.4853 281.79 32.344C281.79 34.4773 282.11 36.4187 282.75 38.168C283.39 39.9173 284.286 41.432 285.438 42.712C286.632 43.9493 288.062 44.9093 289.726 45.592C291.39 46.2747 293.224 46.616 295.23 46.616Z" fill="black"/>
<path d="M157.36 80V66.8C157.36 66.016 157.528 65.32 157.864 64.712C158.216 64.104 158.696 63.632 159.304 63.296C159.928 62.944 160.632 62.768 161.416 62.768C162.024 62.768 162.56 62.88 163.024 63.104C163.488 63.312 163.912 63.608 164.296 63.992L163.192 65.096C162.936 64.84 162.664 64.656 162.376 64.544C162.104 64.416 161.784 64.352 161.416 64.352C160.664 64.352 160.08 64.576 159.664 65.024C159.264 65.456 159.064 66.064 159.064 66.848V80H157.36ZM154.528 70.232V68.72H162.832V70.232H154.528ZM169.535 80.24C168.447 80.24 167.455 79.976 166.559 79.448C165.679 78.92 164.975 78.208 164.447 77.312C163.935 76.416 163.679 75.416 163.679 74.312C163.679 73.224 163.935 72.24 164.447 71.36C164.975 70.48 165.679 69.784 166.559 69.272C167.455 68.744 168.447 68.48 169.535 68.48C170.639 68.48 171.631 68.736 172.511 69.248C173.391 69.76 174.087 70.464 174.599 71.36C175.127 72.24 175.391 73.224 175.391 74.312C175.391 75.432 175.127 76.44 174.599 77.336C174.087 78.216 173.391 78.92 172.511 79.448C171.631 79.976 170.639 80.24 169.535 80.24ZM169.535 78.608C170.335 78.608 171.039 78.424 171.647 78.056C172.271 77.688 172.759 77.176 173.111 76.52C173.479 75.864 173.663 75.128 173.663 74.312C173.663 73.496 173.479 72.776 173.111 72.152C172.759 71.512 172.271 71.008 171.647 70.64C171.039 70.272 170.335 70.088 169.535 70.088C168.751 70.088 168.047 70.272 167.423 70.64C166.799 71.008 166.311 71.512 165.959 72.152C165.607 72.776 165.431 73.496 165.431 74.312C165.431 75.144 165.607 75.888 165.959 76.544C166.311 77.184 166.799 77.688 167.423 78.056C168.047 78.424 168.751 78.608 169.535 78.608ZM178.063 80V68.72H179.743V80H178.063ZM179.743 73.424L179.047 73.112C179.047 71.688 179.391 70.56 180.079 69.728C180.783 68.896 181.743 68.48 182.959 68.48C183.519 68.48 184.031 68.584 184.495 68.792C184.959 68.984 185.391 69.296 185.791 69.728L184.687 70.904C184.415 70.6 184.111 70.384 183.775 70.256C183.455 70.128 183.087 70.064 182.671 70.064C181.807 70.064 181.103 70.352 180.559 70.928C180.015 71.488 179.743 72.32 179.743 73.424ZM198.125 80.24C196.845 80.24 195.741 80 194.813 79.52C193.885 79.024 193.069 78.336 192.365 77.456L193.589 76.256C194.149 77.04 194.797 77.624 195.533 78.008C196.285 78.392 197.173 78.584 198.197 78.584C199.253 78.584 200.109 78.344 200.765 77.864C201.421 77.384 201.749 76.72 201.749 75.872C201.749 75.216 201.597 74.68 201.293 74.264C200.989 73.832 200.589 73.488 200.093 73.232C199.613 72.96 199.077 72.72 198.485 72.512C197.893 72.304 197.301 72.088 196.709 71.864C196.133 71.624 195.597 71.328 195.101 70.976C194.605 70.624 194.205 70.176 193.901 69.632C193.613 69.088 193.469 68.392 193.469 67.544C193.469 66.648 193.685 65.88 194.117 65.24C194.549 64.6 195.141 64.112 195.893 63.776C196.645 63.424 197.501 63.248 198.461 63.248C199.533 63.248 200.485 63.456 201.317 63.872C202.165 64.288 202.869 64.848 203.429 65.552L202.229 66.752C201.717 66.144 201.157 65.68 200.549 65.36C199.941 65.04 199.229 64.88 198.413 64.88C197.453 64.88 196.685 65.104 196.109 65.552C195.533 66 195.245 66.624 195.245 67.424C195.245 68.048 195.389 68.552 195.677 68.936C195.981 69.32 196.381 69.64 196.877 69.896C197.373 70.152 197.909 70.384 198.485 70.592C199.077 70.784 199.669 71 200.261 71.24C200.853 71.48 201.389 71.784 201.869 72.152C202.365 72.52 202.765 72.992 203.069 73.568C203.373 74.128 203.525 74.848 203.525 75.728C203.525 77.152 203.037 78.264 202.061 79.064C201.101 79.848 199.789 80.24 198.125 80.24ZM214.654 80V73.376C214.654 72.384 214.358 71.584 213.766 70.976C213.19 70.352 212.422 70.04 211.462 70.04C210.806 70.04 210.23 70.184 209.734 70.472C209.238 70.76 208.846 71.152 208.558 71.648C208.27 72.144 208.126 72.712 208.126 73.352L207.358 72.92C207.358 72.072 207.558 71.312 207.958 70.64C208.358 69.968 208.894 69.44 209.566 69.056C210.254 68.672 211.038 68.48 211.918 68.48C212.782 68.48 213.55 68.68 214.222 69.08C214.894 69.464 215.414 70 215.782 70.688C216.166 71.376 216.358 72.176 216.358 73.088V80H214.654ZM206.446 80V63.008H208.126V80H206.446ZM224.613 80.24C223.525 80.24 222.533 79.976 221.637 79.448C220.757 78.92 220.053 78.208 219.525 77.312C219.013 76.416 218.757 75.416 218.757 74.312C218.757 73.224 219.013 72.24 219.525 71.36C220.053 70.48 220.757 69.784 221.637 69.272C222.533 68.744 223.525 68.48 224.613 68.48C225.717 68.48 226.709 68.736 227.589 69.248C228.469 69.76 229.165 70.464 229.677 71.36C230.205 72.24 230.469 73.224 230.469 74.312C230.469 75.432 230.205 76.44 229.677 77.336C229.165 78.216 228.469 78.92 227.589 79.448C226.709 79.976 225.717 80.24 224.613 80.24ZM224.613 78.608C225.413 78.608 226.117 78.424 226.725 78.056C227.349 77.688 227.837 77.176 228.189 76.52C228.557 75.864 228.741 75.128 228.741 74.312C228.741 73.496 228.557 72.776 228.189 72.152C227.837 71.512 227.349 71.008 226.725 70.64C226.117 70.272 225.413 70.088 224.613 70.088C223.829 70.088 223.125 70.272 222.501 70.64C221.877 71.008 221.389 71.512 221.037 72.152C220.685 72.776 220.509 73.496 220.509 74.312C220.509 75.144 220.685 75.888 221.037 76.544C221.389 77.184 221.877 77.688 222.501 78.056C223.125 78.424 223.829 78.608 224.613 78.608ZM238.974 80.24C238.11 80.24 237.334 80.064 236.646 79.712C235.958 79.36 235.39 78.88 234.942 78.272C234.51 77.648 234.246 76.928 234.15 76.112V72.584C234.246 71.752 234.518 71.032 234.965 70.424C235.414 69.8 235.982 69.32 236.67 68.984C237.374 68.648 238.142 68.48 238.974 68.48C240.014 68.48 240.95 68.744 241.782 69.272C242.614 69.784 243.27 70.488 243.75 71.384C244.246 72.264 244.494 73.264 244.494 74.384C244.494 75.488 244.254 76.48 243.773 77.36C243.294 78.24 242.63 78.944 241.782 79.472C240.95 79.984 240.014 80.24 238.974 80.24ZM238.686 78.632C239.486 78.632 240.19 78.456 240.798 78.104C241.406 77.736 241.878 77.232 242.214 76.592C242.566 75.936 242.742 75.192 242.742 74.36C242.742 73.512 242.566 72.768 242.214 72.128C241.878 71.488 241.406 70.984 240.798 70.616C240.19 70.248 239.494 70.064 238.71 70.064C237.926 70.064 237.23 70.248 236.622 70.616C236.03 70.984 235.566 71.488 235.23 72.128C234.894 72.768 234.726 73.512 234.726 74.36C234.726 75.192 234.894 75.936 235.23 76.592C235.566 77.232 236.03 77.736 236.622 78.104C237.214 78.456 237.902 78.632 238.686 78.632ZM233.142 84.752V68.72H234.822V71.6L234.486 74.336L234.822 77.096V84.752H233.142ZM249.95 80L245.606 68.72H247.358L250.79 78.08L250.166 78.104L253.574 68.72H254.558L257.966 78.104L257.342 78.08L260.75 68.72H262.526L258.158 80H257.174L253.694 70.76H254.414L250.958 80H249.95ZM269.233 80.24C268.161 80.24 267.201 79.984 266.353 79.472C265.505 78.944 264.833 78.24 264.337 77.36C263.857 76.48 263.617 75.488 263.617 74.384C263.617 73.264 263.857 72.264 264.337 71.384C264.833 70.488 265.505 69.784 266.353 69.272C267.201 68.744 268.153 68.48 269.209 68.48C270.073 68.48 270.841 68.656 271.513 69.008C272.201 69.344 272.753 69.824 273.169 70.448C273.601 71.056 273.865 71.768 273.961 72.584V76.112C273.865 76.928 273.601 77.648 273.169 78.272C272.753 78.896 272.201 79.384 271.513 79.736C270.841 80.072 270.081 80.24 269.233 80.24ZM269.497 78.632C270.665 78.632 271.601 78.24 272.305 77.456C273.025 76.672 273.385 75.64 273.385 74.36C273.385 73.512 273.217 72.768 272.881 72.128C272.561 71.472 272.105 70.968 271.513 70.616C270.937 70.248 270.257 70.064 269.473 70.064C268.673 70.064 267.961 70.248 267.337 70.616C266.729 70.984 266.241 71.496 265.873 72.152C265.521 72.792 265.345 73.528 265.345 74.36C265.345 75.192 265.521 75.928 265.873 76.568C266.241 77.208 266.737 77.712 267.361 78.08C267.985 78.448 268.697 78.632 269.497 78.632ZM273.289 80V76.976L273.625 74.192L273.289 71.48V68.72H274.969V80H273.289ZM278.376 80V68.72H280.056V80H278.376ZM280.056 73.424L279.36 73.112C279.36 71.688 279.704 70.56 280.392 69.728C281.096 68.896 282.056 68.48 283.272 68.48C283.832 68.48 284.344 68.584 284.808 68.792C285.272 68.984 285.704 69.296 286.104 69.728L285 70.904C284.728 70.6 284.424 70.384 284.088 70.256C283.768 70.128 283.4 70.064 282.984 70.064C282.12 70.064 281.416 70.352 280.872 70.928C280.328 71.488 280.056 72.32 280.056 73.424ZM292.701 80.24C291.565 80.24 290.549 79.984 289.653 79.472C288.757 78.96 288.045 78.256 287.517 77.36C287.005 76.464 286.749 75.456 286.749 74.336C286.749 73.232 287.005 72.24 287.517 71.36C288.029 70.464 288.725 69.76 289.605 69.248C290.485 68.736 291.469 68.48 292.557 68.48C293.581 68.48 294.485 68.712 295.269 69.176C296.069 69.64 296.693 70.288 297.141 71.12C297.605 71.936 297.837 72.88 297.837 73.952C297.837 74.08 297.829 74.232 297.813 74.408C297.797 74.568 297.765 74.76 297.717 74.984H287.949V73.544H296.805L296.205 74.072C296.221 73.24 296.077 72.528 295.773 71.936C295.485 71.328 295.061 70.864 294.501 70.544C293.957 70.208 293.293 70.04 292.509 70.04C291.693 70.04 290.981 70.216 290.373 70.568C289.765 70.92 289.285 71.416 288.933 72.056C288.597 72.68 288.429 73.424 288.429 74.288C288.429 75.152 288.605 75.912 288.957 76.568C289.325 77.224 289.829 77.736 290.469 78.104C291.125 78.472 291.877 78.656 292.725 78.656C293.413 78.656 294.045 78.536 294.621 78.296C295.197 78.04 295.685 77.664 296.085 77.168L297.165 78.272C296.637 78.896 295.981 79.384 295.197 79.736C294.429 80.072 293.597 80.24 292.701 80.24ZM310.627 80.24C309.571 80.24 308.611 79.992 307.747 79.496C306.899 78.984 306.219 78.304 305.707 77.456C305.211 76.608 304.963 75.664 304.963 74.624C304.963 73.216 305.451 71.84 306.427 70.496L311.611 63.488H313.675L308.539 70.28L307.915 70.52C308.139 70.232 308.395 69.992 308.683 69.8C308.987 69.592 309.331 69.432 309.715 69.32C310.099 69.208 310.539 69.152 311.035 69.152C312.011 69.152 312.899 69.392 313.699 69.872C314.499 70.336 315.139 70.976 315.619 71.792C316.099 72.608 316.339 73.536 316.339 74.576C316.339 75.616 316.083 76.568 315.571 77.432C315.059 78.28 314.371 78.96 313.507 79.472C312.643 79.984 311.683 80.24 310.627 80.24ZM310.651 78.608C311.371 78.608 312.027 78.432 312.619 78.08C313.227 77.712 313.707 77.224 314.059 76.616C314.411 75.992 314.587 75.312 314.587 74.576C314.587 73.824 314.411 73.144 314.059 72.536C313.707 71.928 313.227 71.448 312.619 71.096C312.027 70.728 311.371 70.544 310.651 70.544C309.915 70.544 309.243 70.728 308.635 71.096C308.043 71.448 307.571 71.928 307.219 72.536C306.883 73.128 306.715 73.808 306.715 74.576C306.715 75.328 306.883 76.016 307.219 76.64C307.571 77.248 308.043 77.728 308.635 78.08C309.243 78.432 309.915 78.608 310.651 78.608Z" fill="black"/>
</svg>
