<svg width="90" height="90" viewBox="0 0 90 90" fill="none" xmlns="http://www.w3.org/2000/svg">
<rect width="90" height="90" rx="10" fill="#D51523"/>
<path d="M64.3359 20.0938C64.4401 20.3021 64.4922 21.0312 64.4922 22.2812C64.5443 23.5312 64.5443 25.0417 64.4922 26.8125C64.4922 28.5833 64.4401 30.4844 64.3359 32.5156C64.2318 34.4948 64.1016 36.3698 63.9453 38.1406C63.8411 39.1302 63.6589 40.6146 63.3984 42.5938C63.1901 44.5729 62.9297 46.7604 62.6172 49.1562C62.3047 51.5521 61.9661 54.026 61.6016 56.5781C61.2891 59.0781 60.9766 61.3958 60.6641 63.5312C60.3516 65.6146 60.0651 67.3594 59.8047 68.7656C59.5964 70.1719 59.4401 70.9271 59.3359 71.0312C59.1276 71.1875 58.7891 71.5781 58.3203 72.2031C57.8516 72.776 57.3307 73.375 56.7578 74C56.237 74.5729 55.7422 75.0417 55.2734 75.4062C54.8047 75.7708 54.4922 75.8229 54.3359 75.5625C54.2318 75.0417 54.1797 73.4271 54.1797 70.7188C54.1797 69.5729 54.1797 68.1406 54.1797 66.4219C54.2318 64.651 54.2839 62.5156 54.3359 60.0156C54.4401 57.5156 54.5703 54.599 54.7266 51.2656C54.8828 47.9323 55.0651 44.0781 55.2734 39.7031C54.2318 43.2448 53.2943 46.3698 52.4609 49.0781C51.6797 51.7865 50.9766 54.1562 50.3516 56.1875C49.7786 58.1667 49.2839 59.8594 48.8672 61.2656C48.4505 62.6198 48.0859 63.7396 47.7734 64.625C47.0964 66.7083 46.6536 67.9323 46.4453 68.2969C46.237 68.349 45.8984 68.1927 45.4297 67.8281C45.013 67.4635 44.5182 66.9427 43.9453 66.2656C43.4245 65.5365 42.8776 64.6771 42.3047 63.6875C41.7839 62.6979 41.3411 61.6042 40.9766 60.4062C40.612 59.3125 40.1432 57.8542 39.5703 56.0312C39.0495 54.4688 38.3724 52.4375 37.5391 49.9375C36.7057 47.3854 35.6901 44.2083 34.4922 40.4062C34.8047 44.6771 35.0651 48.4271 35.2734 51.6562C35.4818 54.8854 35.638 57.6979 35.7422 60.0938C35.8984 62.4896 36.0026 64.5208 36.0547 66.1875C36.1589 67.8021 36.2109 69.1562 36.2109 70.25C36.263 72.75 36.1849 74.1823 35.9766 74.5469C35.4557 74.5469 34.8828 74.3125 34.2578 73.8438C33.6849 73.3229 33.112 72.724 32.5391 72.0469C32.0182 71.3177 31.5495 70.6146 31.1328 69.9375C30.7682 69.2604 30.5599 68.7656 30.5078 68.4531C30.4557 68.2448 30.2995 67.2812 30.0391 65.5625C29.7786 63.8438 29.4661 61.6562 29.1016 59C28.7891 56.2917 28.4245 53.2708 28.0078 49.9375C27.6432 46.5521 27.2786 43.1146 26.9141 39.625C26.6016 36.1354 26.3411 32.75 26.1328 29.4688C25.9245 26.1354 25.8203 23.1667 25.8203 20.5625C25.8203 20.1458 26.3411 19.599 27.3828 18.9219C28.4245 18.1927 29.5964 17.5156 30.8984 16.8906C32.2526 16.2135 33.5026 15.6406 34.6484 15.1719C35.7943 14.651 36.4974 14.3906 36.7578 14.3906C36.9661 14.3906 37.1745 14.9896 37.3828 16.1875C37.6432 17.3854 37.9297 18.8958 38.2422 20.7188C38.5547 22.5417 38.8932 24.5729 39.2578 26.8125C39.6224 29.0521 40.0391 31.1875 40.5078 33.2188C40.8724 35.3021 41.3151 37.4635 41.8359 39.7031C42.2526 41.6302 42.7214 43.7656 43.2422 46.1094C43.8151 48.401 44.4401 50.6406 45.1172 52.8281C45.8464 49.651 46.4974 46.7865 47.0703 44.2344C47.6953 41.6302 48.2422 39.4167 48.7109 37.5938C49.2839 35.4583 49.7786 33.5573 50.1953 31.8906C51.1328 27.8281 52.0443 24.625 52.9297 22.2812C53.8672 19.9375 54.4661 18.5573 54.7266 18.1406C54.8828 17.9323 55.4297 17.8802 56.3672 17.9844C57.3568 18.0885 58.4245 18.2708 59.5703 18.5312C60.7161 18.7396 61.7578 19 62.6953 19.3125C63.6849 19.625 64.2318 19.8854 64.3359 20.0938Z" fill="white"/>
</svg>
