<svg width="480" height="480" viewBox="0 0 480 480" fill="none" xmlns="http://www.w3.org/2000/svg">
<path d="M475.446 453.886L351.518 331.938C383.97 296.679 403.911 250.049 403.911 198.737C403.895 88.9704 313.484 0 201.947 0C90.4111 0 0 88.9704 0 198.737C0 308.503 90.4111 397.473 201.947 397.473C250.139 397.473 294.339 380.804 329.058 353.093L453.467 475.521C459.529 481.493 469.37 481.493 475.432 475.521C481.508 469.55 481.508 459.858 475.446 453.886ZM201.947 366.896C107.576 366.896 31.0725 291.609 31.0725 198.737C31.0725 105.864 107.576 30.5768 201.947 30.5768C296.32 30.5768 372.822 105.864 372.822 198.737C372.822 291.609 296.32 366.896 201.947 366.896Z" fill="black"/>
</svg>
