<svg width="542" height="479" viewBox="0 0 542 479" fill="none" xmlns="http://www.w3.org/2000/svg">
<path d="M502.455 47.0376C475.723 16.7046 438.637 0 398.031 0C340.922 0 304.766 34.1079 284.492 62.7217C279.232 70.1467 274.757 77.5917 271 84.5975C267.243 77.5917 262.769 70.1467 257.508 62.7217C237.234 34.1079 201.078 0 143.969 0C103.363 0 66.2775 16.7057 39.5438 47.0386C14.0444 75.9742 0 114.727 0 156.158C0 201.258 17.6076 243.204 55.4121 288.165C89.1992 328.349 137.807 369.77 194.093 417.734C215.067 435.607 236.757 454.09 259.848 474.293L260.541 474.901C263.535 477.522 267.267 478.832 271 478.832C274.733 478.832 278.465 477.521 281.459 474.901L282.152 474.293C305.243 454.09 326.933 435.608 347.91 417.732C404.193 369.771 452.801 328.35 486.588 288.165C524.392 243.203 542 201.258 542 156.158C542 114.727 527.956 75.9742 502.455 47.0376ZM327.31 393.562C309.229 408.969 290.621 424.825 271 441.882C251.38 424.827 232.771 408.97 214.687 393.56C104.531 299.691 31.7578 237.678 31.7578 156.158C31.7578 122.463 42.9842 91.1672 63.3695 68.0358C83.9888 44.642 112.612 31.7578 143.969 31.7578C187.508 31.7578 215.652 58.5805 231.595 81.0819C245.895 101.263 253.357 121.607 255.902 129.416C258.031 135.953 264.125 140.377 271 140.377C277.875 140.377 283.969 135.953 286.098 129.416C288.643 121.607 296.105 101.263 310.405 81.0809C326.348 58.5805 354.492 31.7578 398.031 31.7578C429.388 31.7578 458.011 44.642 478.629 68.0358C499.016 91.1672 510.242 122.463 510.242 156.158C510.242 237.678 437.469 299.691 327.31 393.562Z" fill="black"/>
</svg>
