<svg width="482" height="482" viewBox="0 0 482 482" fill="none" xmlns="http://www.w3.org/2000/svg">
<path d="M237.565 232.181C269.463 232.181 297.08 220.741 319.651 198.169C342.216 175.601 353.66 147.988 353.66 116.087C353.66 84.1969 342.219 56.5799 319.648 34.0046C297.076 11.4403 269.459 0 237.565 0C205.664 0 178.051 11.4403 155.483 34.0082C132.915 56.5762 121.471 84.1932 121.471 116.087C121.471 147.988 132.915 175.605 155.483 198.173C178.058 220.737 205.675 232.181 237.565 232.181V232.181ZM175.458 53.98C192.775 36.6633 213.089 28.2458 237.565 28.2458C262.038 28.2458 282.356 36.6633 299.676 53.98C316.993 71.3004 325.414 91.6178 325.414 116.087C325.414 140.563 316.993 160.877 299.676 178.198C282.356 195.518 262.038 203.935 237.565 203.935C213.096 203.935 192.782 195.514 175.458 178.198C158.138 160.881 149.717 140.563 149.717 116.087C149.717 91.6178 158.138 71.3004 175.458 53.98Z" fill="black"/>
<path d="M440.699 370.634C440.049 361.242 438.732 350.997 436.794 340.178C434.838 329.278 432.319 318.974 429.303 309.557C426.185 299.823 421.952 290.21 416.712 280.998C411.281 271.437 404.897 263.111 397.733 256.261C390.242 249.093 381.071 243.331 370.465 239.128C359.897 234.947 348.184 232.828 335.655 232.828C330.735 232.828 325.977 234.847 316.787 240.83C311.131 244.519 304.516 248.784 297.131 253.503C290.817 257.526 282.264 261.295 271.699 264.707C261.391 268.043 250.925 269.734 240.592 269.734C230.266 269.734 219.8 268.043 209.485 264.707C198.931 261.299 190.374 257.529 184.071 253.506C176.756 248.832 170.137 244.567 164.397 240.827C155.214 234.844 150.456 232.825 145.536 232.825C133.003 232.825 121.294 234.947 110.729 239.131C100.131 243.327 90.956 249.09 83.4579 256.264C76.2944 263.119 69.9104 271.441 64.4827 280.998C59.2498 290.21 55.0134 299.819 51.895 309.56C48.8833 318.978 46.3643 329.278 44.4079 340.178C42.4662 350.982 41.1534 361.231 40.5025 370.645C39.8627 379.849 39.5391 389.429 39.5391 399.108C39.5391 424.268 47.5373 444.637 63.3096 459.659C78.8869 474.482 99.4949 481.999 124.563 481.999H356.65C381.711 481.999 402.319 474.482 417.9 459.659C433.676 444.648 441.674 424.272 441.674 399.104C441.67 389.392 441.343 379.813 440.699 370.634V370.634ZM398.424 439.195C388.132 448.991 374.466 453.753 356.646 453.753H124.563C106.739 453.753 93.0742 448.991 82.7849 439.198C72.6905 429.589 67.7849 416.472 67.7849 399.108C67.7849 390.076 68.0828 381.158 68.6785 372.598C69.2596 364.198 70.4473 354.972 72.2088 345.168C73.9482 335.486 76.162 326.399 78.795 318.173C81.3213 310.285 84.767 302.474 89.0401 294.95C93.1183 287.779 97.8106 281.627 102.988 276.67C107.831 272.033 113.936 268.238 121.129 265.391C127.781 262.758 135.257 261.317 143.373 261.1C144.362 261.626 146.124 262.63 148.978 264.49C154.784 268.274 161.477 272.592 168.876 277.317C177.216 282.635 187.961 287.437 200.799 291.582C213.924 295.825 227.309 297.98 240.595 297.98C253.882 297.98 267.271 295.825 280.388 291.585C293.237 287.434 303.979 282.635 312.33 277.31C319.902 272.47 326.407 268.278 332.213 264.49C335.067 262.633 336.829 261.626 337.818 261.1C345.937 261.317 353.413 262.758 360.07 265.391C367.259 268.238 373.363 272.036 378.206 276.67C383.384 281.623 388.076 287.776 392.155 294.954C396.431 302.474 399.881 310.288 402.403 318.169C405.04 326.406 407.257 335.489 408.993 345.164C410.751 354.987 411.942 364.217 412.523 372.601V372.609C413.123 381.136 413.424 390.05 413.428 399.108C413.424 416.476 408.519 429.589 398.424 439.195V439.195Z" fill="black"/>
</svg>
