<svg width="381" height="480" viewBox="0 0 381 480" fill="none" xmlns="http://www.w3.org/2000/svg">
<path d="M190.46 269.12C168.257 269.147 146.731 261.476 129.548 247.414C112.365 233.353 100.587 213.77 96.2202 192C95.8722 189.707 96.0269 187.366 96.6735 185.138C97.3202 182.911 98.4434 180.85 99.9654 179.1C101.487 177.35 103.372 175.952 105.488 175.002C107.604 174.052 109.901 173.574 112.22 173.6C116.032 173.545 119.738 174.852 122.672 177.287C125.605 179.721 127.573 183.123 128.22 186.88C131.234 201.263 139.105 214.17 150.511 223.435C161.918 232.699 176.165 237.756 190.86 237.756C205.555 237.756 219.803 232.699 231.209 223.435C242.616 214.17 250.487 201.263 253.5 186.88C254.148 183.123 256.116 179.721 259.049 177.287C261.982 174.852 265.689 173.545 269.5 173.6C271.82 173.574 274.117 174.052 276.233 175.002C278.349 175.952 280.233 177.35 281.755 179.1C283.277 180.85 284.4 182.911 285.047 185.138C285.694 187.366 285.848 189.707 285.5 192C281.107 213.905 269.212 233.592 251.864 247.67C234.516 261.747 212.801 269.333 190.46 269.12V269.12Z" fill="black"/>
<path d="M332.86 480H48.06C41.5495 480.008 35.1053 478.692 29.1195 476.131C23.1337 473.57 17.7315 469.818 13.2414 465.104C8.75132 460.389 5.26729 454.81 3.00125 448.707C0.735205 442.603 -0.265493 436.103 0.060042 429.6L13.02 153.76C13.5564 141.394 18.8494 129.712 27.7936 121.156C36.7379 112.599 48.642 107.828 61.02 107.84H319.9C332.278 107.828 344.182 112.599 353.126 121.156C362.071 129.712 367.364 141.394 367.9 153.76L380.86 429.6C381.186 436.103 380.185 442.603 377.919 448.707C375.653 454.81 372.169 460.389 367.679 465.104C363.189 469.818 357.786 473.57 351.801 476.131C345.815 478.692 339.371 480.008 332.86 480V480ZM61.02 140C56.7766 140 52.7069 141.686 49.7063 144.686C46.7058 147.687 45.02 151.757 45.02 156L32.06 431.2C31.9515 433.368 32.2851 435.534 33.0404 437.569C33.7958 439.604 34.9571 441.463 36.4538 443.035C37.9505 444.606 39.7513 445.857 41.7465 446.71C43.7418 447.564 45.8898 448.003 48.06 448H332.86C335.03 448.003 337.178 447.564 339.174 446.71C341.169 445.857 342.97 444.606 344.466 443.035C345.963 441.463 347.124 439.604 347.88 437.569C348.635 435.534 348.969 433.368 348.86 431.2L335.9 155.36C335.9 151.117 334.214 147.047 331.214 144.046C328.213 141.046 324.144 139.36 319.9 139.36L61.02 140Z" fill="black"/>
<path d="M286.46 124H254.46V96C254.46 79.0261 247.717 62.7475 235.715 50.7452C223.712 38.7428 207.434 32 190.46 32C173.486 32 157.207 38.7428 145.205 50.7452C133.203 62.7475 126.46 79.0261 126.46 96V124H94.46V96C94.46 70.5392 104.574 46.1212 122.578 28.1177C140.581 10.1143 164.999 0 190.46 0C215.921 0 240.339 10.1143 258.342 28.1177C276.346 46.1212 286.46 70.5392 286.46 96V124Z" fill="black"/>
</svg>
